<svg width="575" height="602" viewBox="0 0 575 602" fill="none" xmlns="http://www.w3.org/2000/svg">
<g clip-path="url(#clip0)">
<path d="M150.144 582.739C150.144 591.925 66.0597 592.903 -37.4282 599.371C-140.82 605.833 -225 591.925 -225 582.739C-225 573.553 -140.432 555.071 -37.4282 566.107C66.0597 577.195 150.144 573.553 150.144 582.739Z" fill="#E6E6E6"/>
<path d="M545.655 0.00100201H323.327C312.598 0.000990353 302.189 3.65112 293.81 10.3514C285.431 17.0516 279.581 26.4033 277.221 36.8691L164.883 535.152C163.658 540.586 163.636 546.224 164.82 551.668C166.003 557.112 168.364 562.231 171.735 566.667C175.106 571.103 179.407 574.747 184.336 577.345C189.264 579.942 194.702 581.431 200.266 581.705L428.822 592.966C441.06 593.569 453.1 589.698 462.694 582.077C472.289 574.455 478.782 563.603 480.963 551.545L544.688 199.254L549.429 200.608L561.622 133.836L556.742 132.616L574.53 34.2789C575.292 30.0669 575.115 25.7388 574.013 21.6029C572.91 17.4671 570.909 13.6254 568.151 10.3518C565.393 7.07814 561.948 4.45319 558.059 2.66404C554.171 0.874892 549.935 -0.0343985 545.655 0.000994964L545.655 0.00100201Z" fill="#3F3D56"/>
<path d="M352.596 10.7427H326.643C319.19 10.7427 311.961 13.2916 306.157 17.9664C300.352 22.6412 296.321 29.1606 294.732 36.4423L186.903 530.659C186.282 533.505 186.283 536.451 186.905 539.296C187.527 542.141 188.755 544.819 190.507 547.145C192.258 549.472 194.491 551.393 197.054 552.778C199.616 554.163 202.446 554.978 205.353 555.169L433.168 570.1C439.595 570.521 445.953 568.561 451.027 564.594C456.101 560.627 459.537 554.93 460.678 548.591L552.69 37.7698C553.285 34.4636 553.148 31.0669 552.287 27.8195C551.427 24.5722 549.864 21.5532 547.709 18.9758C545.555 16.3983 542.861 14.3251 539.817 12.9026C536.774 11.48 533.455 10.7427 530.096 10.7427H505.476C503.093 10.7427 500.777 11.5282 498.885 12.9777C496.994 14.4272 495.633 16.4597 495.014 18.7606C494.467 20.7919 493.266 22.5863 491.596 23.8659C489.926 25.1455 487.881 25.839 485.778 25.839H368.898C364.779 25.839 360.811 24.2842 357.789 21.4853C354.766 18.6864 352.912 14.8499 352.596 10.7427V10.7427Z" fill="white"/>
<path d="M108.738 264.952L128.825 304.718L188.886 332.023C195.3 342.862 215.681 343.692 217.163 336.682C218.826 328.819 192.413 316.162 192.413 316.162L142.177 282.183L137.782 252.932L108.738 264.952Z" fill="#A0616A"/>
<path d="M111.107 531.816L107.403 561.451L128.889 562.933L131.111 531.816H111.107Z" fill="#A0616A"/>
<path d="M114.071 557.006C112.151 554.975 110.379 552.808 108.77 550.523C105.69 546.262 102.958 568.119 102.958 568.119C102.958 568.119 99.9946 577.01 100.735 581.455C101.476 585.901 118.517 585.901 121.48 585.16C124.444 584.419 139.261 585.16 139.261 585.16H161.488C180.751 576.269 161.488 570.342 161.488 570.342C155.561 569.601 135.557 551.079 135.557 551.079L131.112 542.93C128.148 542.189 125.185 553.302 125.185 553.302L114.071 557.006Z" fill="#2F2E41"/>
<path d="M55.5418 532.187L51.8365 561.822L73.3223 563.304L75.5454 532.187H55.5418Z" fill="#A0616A"/>
<path d="M58.5052 557.376C56.5844 555.345 54.8126 553.178 53.2034 550.893C50.1242 546.632 47.392 568.49 47.392 568.49C47.392 568.49 44.4284 576.639 45.1693 581.085C45.9102 585.53 62.9505 585.53 65.914 584.789C68.8775 584.048 83.6952 585.53 83.6952 585.53H105.922C125.185 576.639 105.922 570.712 105.922 570.712C99.9946 569.971 79.9908 551.449 79.9908 551.449L75.5455 543.3C72.5819 542.559 69.6184 553.672 69.6184 553.672L58.5052 557.376Z" fill="#2F2E41"/>
<path d="M79.9908 341.039C77.0272 344.743 78.509 357.338 78.509 357.338C78.509 357.338 73.3228 398.087 75.5455 401.791C77.7681 405.496 74.0637 408.459 71.841 413.646C69.6184 418.832 67.3958 431.427 67.3958 431.427C54.8007 441.799 55.5416 489.215 55.5416 489.215L51.0963 531.446C52.5781 535.891 73.3228 536.632 76.2863 535.891C79.2499 535.15 88.1404 468.471 88.1404 468.471L108.144 430.686C108.144 430.686 106.663 531.446 106.663 535.891C106.663 540.336 126.666 538.114 131.112 538.114C135.557 538.114 135.557 464.026 135.557 464.026L140.002 444.763L163.71 356.598V346.225L160.006 341.039C160.006 341.039 82.9543 337.335 79.9908 341.039Z" fill="#2F2E41"/>
<path d="M112.59 172.859C125.274 172.859 135.557 162.576 135.557 149.891C135.557 137.207 125.274 126.924 112.59 126.924C99.9051 126.924 89.6223 137.207 89.6223 149.891C89.6223 162.576 99.9051 172.859 112.59 172.859Z" fill="#A0616A"/>
<path d="M124.073 160.634C119.418 171.001 122.174 185.481 131.482 201.383L93.6971 183.602L99.6242 178.415L98.1425 163.598L124.073 160.634Z" fill="#A0616A"/>
<path d="M124.073 184.343C129.021 187.284 131.981 192.689 133.68 198.189C136.826 208.371 138.719 218.899 139.319 229.539L141.114 261.394L163.34 345.855C144.077 362.154 132.964 358.45 107.033 345.114C81.1022 331.778 78.1386 349.559 78.1386 349.559C78.1386 349.559 75.916 348.818 78.1386 346.596C80.3613 344.373 78.1386 346.596 75.916 344.373C73.6934 342.15 75.916 344.373 76.6569 342.15C77.3977 339.928 76.6569 341.41 75.916 340.669C75.1751 339.928 78.8795 333.26 78.8795 333.26L72.9524 277.694L65.5436 199.16C74.4342 188.047 99.6242 178.416 99.6242 178.416L122.592 194.715C130 197.678 124.073 185.824 124.073 185.824L124.073 184.343Z" fill="#6C63FF"/>
<path d="M53.319 246.206L50.3555 290.659L88.1405 344.743C88.1405 357.338 94.8084 360.302 94.8084 360.302C97.334 356.271 99.5625 352.062 101.476 347.707C105.181 339.557 99.2537 332.889 99.2537 332.889L73.3228 278.064L84.436 250.651L53.319 246.206Z" fill="#A0616A"/>
<path d="M65.9141 199.53C53.3191 203.976 51.0964 252.133 51.0964 252.133C65.9141 243.983 83.6952 257.319 83.6952 257.319C83.6952 257.319 87.3996 244.724 91.8449 228.425C93.1872 223.84 93.3476 218.99 92.3113 214.327C91.2749 209.663 89.0756 205.338 85.9179 201.753C85.9179 201.753 78.5091 195.085 65.9141 199.53Z" fill="#6C63FF"/>
<path d="M91.4745 156.93C94.3983 154.591 98.3872 158.843 98.3872 158.843L100.726 137.791C100.726 137.791 115.345 139.545 124.702 137.206C134.058 134.867 135.52 145.685 135.52 145.685C136.002 141.316 136.1 136.914 135.812 132.528C135.228 127.265 127.626 122.002 114.176 118.493C100.726 114.985 93.709 130.189 93.709 130.189C84.3527 134.867 88.5507 159.269 91.4745 156.93Z" fill="#2F2E41"/>
<path d="M481.881 356.243C482.327 356.26 482.765 356.116 483.114 355.839C483.464 355.562 483.703 355.168 483.788 354.73L534.872 76.6833C534.921 76.4186 534.911 76.1465 534.843 75.886C534.776 75.6255 534.652 75.3828 534.481 75.175C534.31 74.9672 534.096 74.7993 533.853 74.6829C533.61 74.5666 533.345 74.5046 533.076 74.5014L300.667 71.7939H300.645C300.226 71.7955 299.819 71.939 299.492 72.2012C299.164 72.4633 298.935 72.8287 298.842 73.2377L238.621 342.259C238.562 342.522 238.562 342.795 238.619 343.058C238.677 343.321 238.791 343.568 238.954 343.782C239.117 343.997 239.326 344.173 239.564 344.298C239.802 344.423 240.065 344.495 240.334 344.508L481.881 356.243Z" fill="#E6E6E6"/>
<path d="M279.624 374.004C279.415 374.004 279.213 374.075 279.05 374.204C278.887 374.334 278.772 374.515 278.725 374.719L276.579 383.918C276.549 384.048 276.547 384.183 276.574 384.314C276.601 384.445 276.656 384.569 276.735 384.676C276.815 384.784 276.916 384.873 277.033 384.937C277.15 385.002 277.28 385.04 277.413 385.049L398.67 393.668C398.894 393.682 399.117 393.614 399.296 393.477C399.474 393.34 399.598 393.143 399.642 392.922L401.706 382.279C401.732 382.15 401.729 382.017 401.698 381.889C401.668 381.761 401.61 381.641 401.53 381.537C401.449 381.433 401.347 381.347 401.231 381.286C401.114 381.225 400.986 381.189 400.855 381.181L279.68 374.006C279.661 374.005 279.642 374.004 279.624 374.004Z" fill="#E6E6E6"/>
<path d="M426.943 427.848C427.161 427.865 427.379 427.804 427.556 427.676C427.734 427.548 427.861 427.361 427.914 427.148L430.541 416.482C430.573 416.352 430.577 416.215 430.55 416.083C430.524 415.951 430.47 415.826 430.39 415.717C430.311 415.608 430.209 415.518 430.091 415.452C429.973 415.387 429.842 415.349 429.708 415.339L274.858 404.509C274.648 404.493 274.439 404.549 274.266 404.669C274.092 404.789 273.966 404.965 273.908 405.168L271.177 414.384C271.138 414.516 271.129 414.655 271.15 414.791C271.172 414.927 271.223 415.056 271.301 415.17C271.379 415.283 271.481 415.378 271.6 415.446C271.719 415.515 271.852 415.557 271.989 415.567L426.943 427.848Z" fill="#E6E6E6"/>
<path d="M418.627 462.036C418.845 462.054 419.063 461.993 419.241 461.865C419.419 461.736 419.545 461.549 419.598 461.336L422.225 450.67C422.257 450.54 422.26 450.403 422.234 450.271C422.208 450.139 422.154 450.014 422.074 449.905C421.995 449.796 421.893 449.706 421.775 449.64C421.657 449.575 421.526 449.537 421.391 449.527L266.542 438.697C266.332 438.68 266.123 438.737 265.949 438.857C265.776 438.977 265.65 439.153 265.592 439.356L262.861 448.572C262.822 448.704 262.813 448.843 262.834 448.979C262.855 449.115 262.907 449.244 262.985 449.358C263.062 449.471 263.165 449.566 263.284 449.634C263.403 449.703 263.536 449.745 263.673 449.755L418.627 462.036Z" fill="#E6E6E6"/>
<path d="M347.309 520.687C347.529 520.71 347.751 520.652 347.932 520.524C348.112 520.395 348.241 520.206 348.292 519.99L353.848 497.767C353.88 497.637 353.884 497.502 353.859 497.37C353.834 497.239 353.781 497.114 353.703 497.005C353.625 496.896 353.525 496.805 353.408 496.739C353.292 496.673 353.162 496.632 353.029 496.621L257.935 488.623C257.713 488.608 257.492 488.672 257.313 488.803C257.134 488.935 257.007 489.126 256.955 489.343L252.216 510.672C252.187 510.799 252.187 510.932 252.213 511.06C252.24 511.189 252.294 511.31 252.371 511.416C252.448 511.522 252.547 511.61 252.661 511.675C252.775 511.74 252.901 511.78 253.031 511.792L347.309 520.687Z" fill="#6C63FF"/>
</g>
<defs>
<clipPath id="clip0">
<rect width="800" height="601.027" fill="white" transform="translate(-225)"/>
</clipPath>
</defs>
</svg>
